<svg xmlns="http://www.w3.org/2000/svg" xmlns:xlink="http://www.w3.org/1999/xlink" width="180" zoomAndPan="magnify" viewBox="0 0 135 74.999997" height="100" preserveAspectRatio="xMidYMid meet" version="1.2"><defs><clipPath id="58a0dfdb89"><path d="M 0 6.75 L 43.5 6.75 L 43.5 65.25 L 0 65.25 Z M 0 6.75 "/></clipPath></defs><g id="885c98aee6"><path style=" stroke:none;fill-rule:evenodd;fill:#ffffff;fill-opacity:1;" d="M 7.609375 22.0625 L 0.00390625 17.527344 L 0.00390625 27.234375 L 7.609375 31.769531 Z M 7.609375 22.0625 "/><g clip-rule="nonzero" clip-path="url(#58a0dfdb89)"><path style=" stroke:none;fill-rule:evenodd;fill:#ffffff;fill-opacity:1;" d="M 20.347656 52.898438 L 12.917969 48.472656 L 7.609375 51.636719 L 7.609375 42.589844 L 15.199219 47.113281 L 15.195312 47.113281 L 22.625 51.542969 L 22.628906 51.539062 L 43.398438 63.917969 L 43.398438 55.0625 L 30.058594 47.113281 L 43.398438 39.160156 L 43.398438 32.628906 L 0.00390625 6.765625 L 0.00390625 15.621094 C 0.00390625 15.621094 23.578125 29.671875 34.019531 35.894531 L 22.628906 42.683594 L 0.00390625 29.199219 L 0.00390625 65.023438 Z M 20.347656 52.898438 "/></g><g style="fill:#ffffff;fill-opacity:1;"><g transform="translate(44.513181, 56.676661)"><path style="stroke:none" d="M 9.15625 -12.265625 L 9.15625 -4.625 L 22.484375 -4.625 L 22.484375 0 L 3.625 0 L 3.625 -27.9375 L 22.1875 -27.9375 L 22.1875 -23.3125 L 9.15625 -23.3125 L 9.15625 -16.765625 L 20.53125 -16.765625 L 20.53125 -12.265625 Z M 9.15625 -12.265625 "/></g></g><g style="fill:#ffffff;fill-opacity:1;"><g transform="translate(68.522116, 56.676661)"><path style="stroke:none" d="M 8.6875 0 L 3.625 0 L 3.625 -27.9375 L 10.84375 -27.9375 L 17.921875 -7.390625 L 18.328125 -7.390625 L 25.34375 -27.9375 L 32.40625 -27.9375 L 32.40625 0 L 27.171875 0 L 27.171875 -18.453125 L 26.6875 -18.53125 L 20.234375 0 L 15.625 0 L 9.171875 -18.53125 L 8.6875 -18.453125 Z M 8.6875 0 "/></g></g><g style="fill:#ffffff;fill-opacity:1;"><g transform="translate(104.564171, 56.676661)"><path style="stroke:none" d="M 15.21875 0.40625 C 12.664062 0.40625 10.410156 -0.113281 8.453125 -1.15625 C 6.492188 -2.207031 4.960938 -3.804688 3.859375 -5.953125 C 2.753906 -8.097656 2.203125 -10.769531 2.203125 -13.96875 C 2.203125 -17.164062 2.753906 -19.835938 3.859375 -21.984375 C 4.960938 -24.128906 6.492188 -25.722656 8.453125 -26.765625 C 10.410156 -27.804688 12.664062 -28.328125 15.21875 -28.328125 C 17.78125 -28.328125 20.035156 -27.804688 21.984375 -26.765625 C 23.929688 -25.734375 25.457031 -24.140625 26.5625 -21.984375 C 27.664062 -19.835938 28.21875 -17.164062 28.21875 -13.96875 C 28.21875 -10.769531 27.664062 -8.09375 26.5625 -5.9375 C 25.457031 -3.789062 23.929688 -2.195312 21.984375 -1.15625 C 20.035156 -0.113281 17.78125 0.40625 15.21875 0.40625 Z M 15.21875 -4.390625 C 17.59375 -4.390625 19.40625 -5.148438 20.65625 -6.671875 C 21.90625 -8.191406 22.53125 -10.625 22.53125 -13.96875 C 22.53125 -17.300781 21.90625 -19.734375 20.65625 -21.265625 C 19.40625 -22.796875 17.59375 -23.5625 15.21875 -23.5625 C 12.84375 -23.5625 11.023438 -22.796875 9.765625 -21.265625 C 8.515625 -19.734375 7.890625 -17.300781 7.890625 -13.96875 C 7.890625 -10.625 8.515625 -8.191406 9.765625 -6.671875 C 11.023438 -5.148438 12.84375 -4.390625 15.21875 -4.390625 Z M 15.21875 -4.390625 "/></g></g></g></svg>